<?xml version="1.0" standalone="no"?>
<!DOCTYPE svg PUBLIC "-//W3C//DTD SVG 20010904//EN"
 "http://www.w3.org/TR/2001/REC-SVG-20010904/DTD/svg10.dtd">
<svg version="1.0" xmlns="http://www.w3.org/2000/svg"
 width="368.000000pt" height="399.000000pt" viewBox="0 0 368.000000 399.000000"
 preserveAspectRatio="xMidYMid meet">
<metadata>
Created by potrace 1.13, written by Peter Selinger 2001-2015
</metadata>
<g transform="translate(0.000000,399.000000) scale(0.100000,-0.100000)"
fill="#000000" stroke="none">
<path d="M1705 3938 c-407 -206 -936 -353 -1612 -449 l-81 -11 34 -102 c85
-249 201 -694 254 -970 11 -61 23 -112 26 -115 15 -15 94 -15 94 0 0 24 -64
351 -95 484 -20 86 -35 158 -33 160 8 7 87 12 97 6 23 -14 104 -395 146 -681
26 -182 42 -384 37 -458 -4 -47 -27 -68 -44 -38 -9 17 -11 17 -23 -1 -9 -13
-14 -121 -18 -433 -4 -244 -12 -483 -21 -580 -9 -91 -16 -170 -16 -177 0 -6
26 -14 63 -18 380 -43 826 -157 1180 -303 l119 -48 121 48 c369 147 797 255
1200 303 l57 7 -5 32 c-29 172 -61 786 -52 1019 5 122 3 148 -8 143 -11 -4
-13 25 -14 147 -3 292 50 643 161 1082 62 247 63 252 48 270 -7 8 -10 21 -7
29 4 10 -16 16 -86 26 -547 72 -900 170 -1279 352 l-147 71 -113 -50 c-146
-65 -377 -152 -414 -155 -16 -2 -30 0 -32 4 -1 5 -11 24 -23 44 -11 20 -19 37
-17 39 2 1 68 25 148 54 80 30 216 85 302 123 l157 69 83 -45 c367 -199 785
-321 1375 -401 103 -14 188 -27 190 -29 2 -2 -16 -71 -41 -153 -80 -270 -173
-669 -211 -909 l-6 -41 32 2 c69 4 67 8 48 -135 -34 -253 -42 -437 -36 -798 5
-333 18 -518 52 -766 9 -60 14 -111 12 -112 -2 -2 -72 -13 -155 -24 -443 -59
-807 -154 -1206 -314 l-139 -56 -126 54 c-337 144 -683 239 -1095 301 -179 27
-206 29 -206 15 0 -12 9 -14 200 -40 409 -55 768 -152 1144 -309 54 -23 106
-41 116 -41 10 0 92 29 182 64 385 150 779 250 1171 297 61 7 112 18 119 26 7
9 4 67 -11 205 -35 322 -44 512 -38 853 6 389 24 562 98 935 50 255 137 590
228 880 22 68 27 98 19 107 -6 7 -8 21 -6 31 5 16 -13 20 -180 40 -423 52
-809 135 -1067 232 -148 55 -378 161 -483 223 -35 20 -64 37 -65 36 -1 0 -47
-23 -102 -51z m-211 -1324 c11 -30 7 -219 -6 -232 -8 -8 -54 -12 -140 -12
l-128 0 -2 -522 -3 -523 -112 -3 -113 -3 0 490 c0 316 -4 492 -10 496 -5 3
-10 19 -10 36 l0 29 -125 0 -125 0 0 120 c0 103 2 120 18 129 10 7 153 11 383
11 326 0 368 -2 373 -16z m364 -636 l-3 -653 -113 -3 -112 -3 2 639 c3 524 5
642 17 655 11 14 33 17 112 17 l99 0 -2 -652z m404 577 c10 -38 57 -229 104
-424 74 -301 89 -350 99 -332 6 12 14 19 17 15 4 -3 11 3 16 13 11 20 88 323
152 596 23 97 48 184 57 192 18 19 223 22 223 4 0 -47 -233 -902 -328 -1204
l-28 -90 -116 -3 -116 -3 -35 113 c-108 343 -307 1085 -307 1144 0 50 13 55
135 52 l110 -3 17 -70z"/>
</g>
</svg>
